<svg width="375" height="244" viewBox="0 0 375 244" fill="none" xmlns="http://www.w3.org/2000/svg">
<g filter="url(#filter0_d_950_2)">
<path d="M150 65C176.51 65 198 43.5097 198 17C198 -9.50967 176.51 -31 150 -31C123.49 -31 102 -9.50967 102 17C102 43.5097 123.49 65 150 65Z" fill="#FFE2DA"/>
<path d="M124 119V38.4096C124 -30.2915 68.4749 -86 0 -86V-5.40957C0 63.2915 55.5251 119 124 119Z" fill="#FFC529"/>
<path d="M204 164V51.9295C204 -43.5797 281.9 -121 378 -121V-8.92948C378 86.5797 300.1 164 204 164Z" fill="#FE724C"/>
</g>
<defs>
<filter id="filter0_d_950_2" x="-80" y="-141" width="478" height="385" filterUnits="userSpaceOnUse" color-interpolation-filters="sRGB">
<feFlood flood-opacity="0" result="BackgroundImageFix"/>
<feColorMatrix in="SourceAlpha" type="matrix" values="0 0 0 0 0 0 0 0 0 0 0 0 0 0 0 0 0 0 127 0" result="hardAlpha"/>
<feOffset dx="-30" dy="30"/>
<feGaussianBlur stdDeviation="25"/>
<feColorMatrix type="matrix" values="0 0 0 0 0.996078 0 0 0 0 0.447059 0 0 0 0 0.298039 0 0 0 0.2 0"/>
<feBlend mode="normal" in2="BackgroundImageFix" result="effect1_dropShadow_950_2"/>
<feBlend mode="normal" in="SourceGraphic" in2="effect1_dropShadow_950_2" result="shape"/>
</filter>
</defs>
</svg>
